<svg version="1" xmlns="http://www.w3.org/2000/svg" width="1333.333" height="1333.333" viewBox="0 0 1000.000000 1000.000000"><path xmlns="http://www.w3.org/2000/svg" d="M0 500v500h1000V0H0v500zm175.3-197.8c12 3.7 22.3 12.8 24.8 22.1 1.3 4.7.9 9.3-2.7 37.1-2.5 19.4-8.1 72-10.8 101.6-3.5 37-3.5 38.1-7.6 110.5-.5 9.3-1 27.2-1 39.8V636l3.8-.5c10.7-1.5 44.6-3.7 66.2-4.2 32.2-.8 45.8 1 59.7 7.7 8.3 4.1 15.7 12.2 17.9 19.7 3.8 12.9-.4 28.3-10.1 37.2-5.5 5-6.8 5.1-21.8 1.1-6.2-1.6-15.6-3.4-20.9-4-23.9-2.5-89.6.1-125.3 5.1-17.8 2.4-26.7 2.4-32.1 0-5.1-2.3-10.7-7.9-13.5-13.3-2.6-5.1-3.5-14.8-2-20.4 1.2-4.6 7-11.8 11.1-13.9l2.9-1.5-.6-12.7c-1.1-26.5 2.2-89.4 9.2-177.8 3.5-43.1 4.4-52.1 8.5-87.5 2.4-21.2 2.5-32.8.4-43.7-2-9.9-1.4-14.1 2.9-19 7.7-8.8 24.2-11.2 41-6.1zm265.2 7.8c83.1 6.9 148.3 37.1 164.1 76 6.6 16.4 5.1 37.8-3.8 54-10.6 19.1-31.9 35.9-62.1 49.1l-11.2 4.8 3.4 1.2c6.9 2.4 23.6 11.2 30.7 16.1 16.9 11.6 31.8 32.9 36.9 52.8 3.5 13.6 3.5 33.4 0 47.1-3.9 15.1-15.4 34.5-27.8 47.1-22.9 23.1-53.2 36.1-95.6 40.9-15.2 1.7-52.5.6-66.3-2-29.4-5.4-41.5-11.7-47.4-24.6-4.2-9.2-4.8-20.7-3.5-68.5.6-23.7 1.6-51.5 2.1-61.9l1-18.8-3.5-5.9c-9-14.9-8.6-29.2 1.1-37.2 2.1-1.8 4.4-3.2 5-3.2.7 0 1.4-2.7 1.8-6.8 1.2-12.7 6.7-60.7 9.1-80.4 1.4-10.8 2.5-20.1 2.5-20.7 0-.6-2.1-.7-5.3-.4-9.1.9-15.7-3.6-18.7-13.1-1.8-5.7-.9-19.1 1.7-24.1 2.5-4.9 9.6-11.6 15.1-14.4 13.6-6.9 40.4-9.6 70.7-7.1zm293 0c73.8 6.2 136.2 31.7 158.1 64.7 10.3 15.5 12.9 34.6 7.3 53.1-7.5 24.5-30.8 45.6-68.1 61.7l-10.3 4.4 3.4 1.2c6.9 2.4 23.6 11.1 30.7 16.1 16.9 11.6 31.8 32.9 36.9 52.8 3.5 13.6 3.5 33.4 0 47.1-.9 3.5-3.6 10.6-6 15.6-16.9 35.9-49.4 59.5-94.7 68.7-20 4.1-30.9 4.9-55.7 4.3-30.4-.8-48.9-4.1-64.8-11.7-12.8-6.2-17.5-13.6-19.4-30.9-1.2-10.5-.1-72.7 2.1-115l1-18.8-3.5-5.9c-9-14.9-8.6-29.2 1.1-37.2 2.1-1.8 4.4-3.2 5-3.2.7 0 1.4-2.7 1.8-6.8 1.2-12.7 6.7-60.7 9.1-80.4 1.4-10.8 2.5-20.1 2.5-20.7 0-.6-2.1-.7-5.3-.4-9.1.9-15.7-3.6-18.7-13.1-1.8-5.7-.9-19.1 1.7-24.1 2.5-4.9 9.6-11.6 15.1-14.4 13.6-6.9 40.4-9.6 70.7-7.1z" fill="#337ebe"/><path xmlns="http://www.w3.org/2000/svg" d="M437.7 367.6c-2.1 3.4-11 97.4-9.4 99 .4.4 6.1.2 12.7-.5 38.9-3.7 79.3-19.4 98.1-38.2 16.2-16.2 12.7-30.8-10.2-42.4-14.3-7.3-34-12.8-56.4-15.9-14.7-2-34.1-3.1-34.8-2zM432.2 530c-9.9 1.4-10 1.4-10.6 7.3-1.7 14.9-3.8 54.6-4 72.2-.1 18.5.1 20.3 2 24 3.1 5.9 8.5 8.3 21.6 9.6 21.3 2.1 47.1-1.9 64.6-10.1 25.8-12.1 39.7-30.9 37.8-50.9-2.2-23.7-31.2-44.3-71.1-50.6-11.8-1.8-32.4-2.6-40.3-1.5zM730.7 367.6c-2.1 3.4-11 97.5-9.4 99.1.4.3 6.1.1 12.7-.6 31.1-2.9 62.5-13.2 84.7-27.6C844 422 849 405.1 832.5 392c-12.3-9.8-38.1-18.4-67-22.4-14.7-2-34.1-3.1-34.8-2zM725.2 530c-9.9 1.4-9.9 1.4-10.6 7.3-1.6 14.4-3.8 54.5-4 72.2-.1 18.5.1 20.3 2 24 3.1 5.9 8.5 8.3 21.6 9.6 21.3 2.1 47-1.9 64.3-10 26-12.2 40-30.9 38.2-50.8-2.3-23.9-31.2-44.5-71.2-50.8-11.8-1.8-32.4-2.6-40.3-1.5z" fill="#337ebe"/></svg>